<mxfile host="app.diagrams.net" agent="Mozilla/5.0 (Windows NT 10.0; Win64; x64) AppleWebKit/537.36 (KHTML, like Gecko) Chrome/138.0.0.0 Safari/537.36" version="28.0.6">
  <diagram name="Страница — 1" id="-lFyQBwnuJ6zg3LmemuK">
    <mxGraphModel dx="2792" dy="2297" grid="1" gridSize="10" guides="1" tooltips="1" connect="1" arrows="1" fold="1" page="1" pageScale="1" pageWidth="827" pageHeight="1169" math="0" shadow="0">
      <root>
        <mxCell id="0" />
        <mxCell id="1" parent="0" />
        <mxCell id="M7_jwG1Dzegm933CNIvK-9" value="IPriorityStratery" style="swimlane;fontStyle=1;align=center;verticalAlign=top;childLayout=stackLayout;horizontal=1;startSize=26;horizontalStack=0;resizeParent=1;resizeParentMax=0;resizeLast=0;collapsible=1;marginBottom=0;whiteSpace=wrap;html=1;" vertex="1" parent="1">
          <mxGeometry x="38.5" y="-680" width="190" height="60" as="geometry" />
        </mxCell>
        <mxCell id="M7_jwG1Dzegm933CNIvK-11" value="" style="line;strokeWidth=1;fillColor=none;align=left;verticalAlign=middle;spacingTop=-1;spacingLeft=3;spacingRight=3;rotatable=0;labelPosition=right;points=[];portConstraint=eastwest;strokeColor=inherit;" vertex="1" parent="M7_jwG1Dzegm933CNIvK-9">
          <mxGeometry y="26" width="190" height="8" as="geometry" />
        </mxCell>
        <mxCell id="M7_jwG1Dzegm933CNIvK-12" value="+ getPriority(IPrioritizable w): int" style="text;strokeColor=none;fillColor=none;align=left;verticalAlign=top;spacingLeft=4;spacingRight=4;overflow=hidden;rotatable=0;points=[[0,0.5],[1,0.5]];portConstraint=eastwest;whiteSpace=wrap;html=1;" vertex="1" parent="M7_jwG1Dzegm933CNIvK-9">
          <mxGeometry y="34" width="190" height="26" as="geometry" />
        </mxCell>
        <mxCell id="M7_jwG1Dzegm933CNIvK-13" value="ConcretePriorityStrategy" style="swimlane;fontStyle=1;align=center;verticalAlign=top;childLayout=stackLayout;horizontal=1;startSize=26;horizontalStack=0;resizeParent=1;resizeParentMax=0;resizeLast=0;collapsible=1;marginBottom=0;whiteSpace=wrap;html=1;" vertex="1" parent="1">
          <mxGeometry x="321.5" y="-680" width="190" height="60" as="geometry" />
        </mxCell>
        <mxCell id="M7_jwG1Dzegm933CNIvK-14" value="" style="line;strokeWidth=1;fillColor=none;align=left;verticalAlign=middle;spacingTop=-1;spacingLeft=3;spacingRight=3;rotatable=0;labelPosition=right;points=[];portConstraint=eastwest;strokeColor=inherit;" vertex="1" parent="M7_jwG1Dzegm933CNIvK-13">
          <mxGeometry y="26" width="190" height="8" as="geometry" />
        </mxCell>
        <mxCell id="M7_jwG1Dzegm933CNIvK-15" value="+ getPriority(IPrioritizable w): int" style="text;strokeColor=none;fillColor=none;align=left;verticalAlign=top;spacingLeft=4;spacingRight=4;overflow=hidden;rotatable=0;points=[[0,0.5],[1,0.5]];portConstraint=eastwest;whiteSpace=wrap;html=1;" vertex="1" parent="M7_jwG1Dzegm933CNIvK-13">
          <mxGeometry y="34" width="190" height="26" as="geometry" />
        </mxCell>
        <mxCell id="M7_jwG1Dzegm933CNIvK-23" value="IPrioritizable" style="swimlane;fontStyle=1;align=center;verticalAlign=top;childLayout=stackLayout;horizontal=1;startSize=26;horizontalStack=0;resizeParent=1;resizeParentMax=0;resizeLast=0;collapsible=1;marginBottom=0;whiteSpace=wrap;html=1;" vertex="1" parent="1">
          <mxGeometry x="690" y="-300" width="250" height="60" as="geometry" />
        </mxCell>
        <mxCell id="M7_jwG1Dzegm933CNIvK-24" value="+ AdvantagesList: List&amp;lt;IAdvantage&amp;gt;" style="text;strokeColor=none;fillColor=none;align=left;verticalAlign=top;spacingLeft=4;spacingRight=4;overflow=hidden;rotatable=0;points=[[0,0.5],[1,0.5]];portConstraint=eastwest;whiteSpace=wrap;html=1;" vertex="1" parent="M7_jwG1Dzegm933CNIvK-23">
          <mxGeometry y="26" width="250" height="26" as="geometry" />
        </mxCell>
        <mxCell id="M7_jwG1Dzegm933CNIvK-25" value="" style="line;strokeWidth=1;fillColor=none;align=left;verticalAlign=middle;spacingTop=-1;spacingLeft=3;spacingRight=3;rotatable=0;labelPosition=right;points=[];portConstraint=eastwest;strokeColor=inherit;" vertex="1" parent="M7_jwG1Dzegm933CNIvK-23">
          <mxGeometry y="52" width="250" height="8" as="geometry" />
        </mxCell>
        <mxCell id="M7_jwG1Dzegm933CNIvK-31" value="" style="endArrow=block;dashed=1;endFill=0;endSize=12;html=1;rounded=0;entryX=1;entryY=0.5;entryDx=0;entryDy=0;exitX=0;exitY=0.5;exitDx=0;exitDy=0;" edge="1" parent="1" source="M7_jwG1Dzegm933CNIvK-15" target="M7_jwG1Dzegm933CNIvK-12">
          <mxGeometry width="160" relative="1" as="geometry">
            <mxPoint x="-51.5" y="-620" as="sourcePoint" />
            <mxPoint x="108.5" y="-620" as="targetPoint" />
          </mxGeometry>
        </mxCell>
        <mxCell id="M7_jwG1Dzegm933CNIvK-46" value="SimpleAdvantage" style="swimlane;fontStyle=1;align=center;verticalAlign=top;childLayout=stackLayout;horizontal=1;startSize=26;horizontalStack=0;resizeParent=1;resizeParentMax=0;resizeLast=0;collapsible=1;marginBottom=0;whiteSpace=wrap;html=1;" vertex="1" parent="1">
          <mxGeometry x="1170" y="-309" width="250" height="78" as="geometry" />
        </mxCell>
        <mxCell id="M7_jwG1Dzegm933CNIvK-47" value="+ Name: string&lt;div&gt;+ Priority: int&lt;/div&gt;" style="text;strokeColor=none;fillColor=none;align=left;verticalAlign=top;spacingLeft=4;spacingRight=4;overflow=hidden;rotatable=0;points=[[0,0.5],[1,0.5]];portConstraint=eastwest;whiteSpace=wrap;html=1;" vertex="1" parent="M7_jwG1Dzegm933CNIvK-46">
          <mxGeometry y="26" width="250" height="44" as="geometry" />
        </mxCell>
        <mxCell id="M7_jwG1Dzegm933CNIvK-48" value="" style="line;strokeWidth=1;fillColor=none;align=left;verticalAlign=middle;spacingTop=-1;spacingLeft=3;spacingRight=3;rotatable=0;labelPosition=right;points=[];portConstraint=eastwest;strokeColor=inherit;" vertex="1" parent="M7_jwG1Dzegm933CNIvK-46">
          <mxGeometry y="70" width="250" height="8" as="geometry" />
        </mxCell>
        <mxCell id="M7_jwG1Dzegm933CNIvK-58" value="ModelParticipant" style="swimlane;fontStyle=1;align=center;verticalAlign=top;childLayout=stackLayout;horizontal=1;startSize=26;horizontalStack=0;resizeParent=1;resizeParentMax=0;resizeLast=0;collapsible=1;marginBottom=0;whiteSpace=wrap;html=1;" vertex="1" parent="1">
          <mxGeometry x="-20" y="-480" width="280" height="88" as="geometry" />
        </mxCell>
        <mxCell id="M7_jwG1Dzegm933CNIvK-59" value="+ ChooseParticipantStrategy: IPriorityStrategy&lt;div&gt;+ AdvantagesList: List&amp;lt;IAdvantage&amp;gt;&lt;/div&gt;&lt;div&gt;+ RequirementsList: List&amp;lt;IAdvantage&amp;gt;&lt;/div&gt;" style="text;strokeColor=none;fillColor=none;align=left;verticalAlign=top;spacingLeft=4;spacingRight=4;overflow=hidden;rotatable=0;points=[[0,0.5],[1,0.5]];portConstraint=eastwest;whiteSpace=wrap;html=1;" vertex="1" parent="M7_jwG1Dzegm933CNIvK-58">
          <mxGeometry y="26" width="280" height="54" as="geometry" />
        </mxCell>
        <mxCell id="M7_jwG1Dzegm933CNIvK-60" value="" style="line;strokeWidth=1;fillColor=none;align=left;verticalAlign=middle;spacingTop=-1;spacingLeft=3;spacingRight=3;rotatable=0;labelPosition=right;points=[];portConstraint=eastwest;strokeColor=inherit;" vertex="1" parent="M7_jwG1Dzegm933CNIvK-58">
          <mxGeometry y="80" width="280" height="8" as="geometry" />
        </mxCell>
        <mxCell id="M7_jwG1Dzegm933CNIvK-67" style="edgeStyle=orthogonalEdgeStyle;rounded=0;orthogonalLoop=1;jettySize=auto;html=1;exitX=0.5;exitY=0;exitDx=0;exitDy=0;entryX=0.5;entryY=1;entryDx=0;entryDy=0;endArrow=block;endFill=0;" edge="1" parent="1" source="M7_jwG1Dzegm933CNIvK-61" target="M7_jwG1Dzegm933CNIvK-58">
          <mxGeometry relative="1" as="geometry" />
        </mxCell>
        <mxCell id="M7_jwG1Dzegm933CNIvK-78" style="edgeStyle=orthogonalEdgeStyle;rounded=0;orthogonalLoop=1;jettySize=auto;html=1;exitX=0.5;exitY=1;exitDx=0;exitDy=0;entryX=0;entryY=0.5;entryDx=0;entryDy=0;" edge="1" parent="1" source="M7_jwG1Dzegm933CNIvK-61" target="M7_jwG1Dzegm933CNIvK-76">
          <mxGeometry relative="1" as="geometry" />
        </mxCell>
        <mxCell id="M7_jwG1Dzegm933CNIvK-61" value="Employer" style="swimlane;fontStyle=1;align=center;verticalAlign=top;childLayout=stackLayout;horizontal=1;startSize=26;horizontalStack=0;resizeParent=1;resizeParentMax=0;resizeLast=0;collapsible=1;marginBottom=0;whiteSpace=wrap;html=1;" vertex="1" parent="1">
          <mxGeometry x="-330" y="-278" width="250" height="34" as="geometry" />
        </mxCell>
        <mxCell id="M7_jwG1Dzegm933CNIvK-63" value="" style="line;strokeWidth=1;fillColor=none;align=left;verticalAlign=middle;spacingTop=-1;spacingLeft=3;spacingRight=3;rotatable=0;labelPosition=right;points=[];portConstraint=eastwest;strokeColor=inherit;" vertex="1" parent="M7_jwG1Dzegm933CNIvK-61">
          <mxGeometry y="26" width="250" height="8" as="geometry" />
        </mxCell>
        <mxCell id="M7_jwG1Dzegm933CNIvK-68" style="edgeStyle=orthogonalEdgeStyle;rounded=0;orthogonalLoop=1;jettySize=auto;html=1;exitX=0.5;exitY=0;exitDx=0;exitDy=0;entryX=0.5;entryY=1;entryDx=0;entryDy=0;endArrow=block;endFill=0;" edge="1" parent="1" source="M7_jwG1Dzegm933CNIvK-64" target="M7_jwG1Dzegm933CNIvK-58">
          <mxGeometry relative="1" as="geometry" />
        </mxCell>
        <mxCell id="M7_jwG1Dzegm933CNIvK-77" style="edgeStyle=orthogonalEdgeStyle;rounded=0;orthogonalLoop=1;jettySize=auto;html=1;exitX=0.5;exitY=1;exitDx=0;exitDy=0;entryX=1;entryY=0.5;entryDx=0;entryDy=0;" edge="1" parent="1" source="M7_jwG1Dzegm933CNIvK-64" target="M7_jwG1Dzegm933CNIvK-76">
          <mxGeometry relative="1" as="geometry" />
        </mxCell>
        <mxCell id="M7_jwG1Dzegm933CNIvK-64" value="Employee" style="swimlane;fontStyle=1;align=center;verticalAlign=top;childLayout=stackLayout;horizontal=1;startSize=26;horizontalStack=0;resizeParent=1;resizeParentMax=0;resizeLast=0;collapsible=1;marginBottom=0;whiteSpace=wrap;html=1;" vertex="1" parent="1">
          <mxGeometry x="300" y="-278" width="250" height="34" as="geometry" />
        </mxCell>
        <mxCell id="M7_jwG1Dzegm933CNIvK-66" value="" style="line;strokeWidth=1;fillColor=none;align=left;verticalAlign=middle;spacingTop=-1;spacingLeft=3;spacingRight=3;rotatable=0;labelPosition=right;points=[];portConstraint=eastwest;strokeColor=inherit;" vertex="1" parent="M7_jwG1Dzegm933CNIvK-64">
          <mxGeometry y="26" width="250" height="8" as="geometry" />
        </mxCell>
        <mxCell id="M7_jwG1Dzegm933CNIvK-69" value="" style="endArrow=block;dashed=1;endFill=0;endSize=12;html=1;rounded=0;entryX=1;entryY=0.5;entryDx=0;entryDy=0;exitX=0.5;exitY=0;exitDx=0;exitDy=0;" edge="1" parent="1" source="M7_jwG1Dzegm933CNIvK-23" target="M7_jwG1Dzegm933CNIvK-59">
          <mxGeometry width="160" relative="1" as="geometry">
            <mxPoint x="380" y="-270" as="sourcePoint" />
            <mxPoint x="540" y="-270" as="targetPoint" />
            <Array as="points">
              <mxPoint x="815" y="-430" />
            </Array>
          </mxGeometry>
        </mxCell>
        <mxCell id="M7_jwG1Dzegm933CNIvK-71" value="" style="endArrow=diamondThin;endFill=1;endSize=24;html=1;rounded=0;entryX=1;entryY=0.5;entryDx=0;entryDy=0;exitX=0;exitY=0.5;exitDx=0;exitDy=0;" edge="1" parent="1" source="M7_jwG1Dzegm933CNIvK-47" target="M7_jwG1Dzegm933CNIvK-24">
          <mxGeometry width="160" relative="1" as="geometry">
            <mxPoint x="1000" y="-210" as="sourcePoint" />
            <mxPoint x="1160" y="-210" as="targetPoint" />
          </mxGeometry>
        </mxCell>
        <mxCell id="M7_jwG1Dzegm933CNIvK-72" value="" style="endArrow=diamondThin;endFill=1;endSize=24;html=1;rounded=0;entryX=0.5;entryY=0;entryDx=0;entryDy=0;exitX=0;exitY=0.5;exitDx=0;exitDy=0;" edge="1" parent="1" source="M7_jwG1Dzegm933CNIvK-12" target="M7_jwG1Dzegm933CNIvK-58">
          <mxGeometry width="160" relative="1" as="geometry">
            <mxPoint x="420" y="-460" as="sourcePoint" />
            <mxPoint x="580" y="-460" as="targetPoint" />
            <Array as="points">
              <mxPoint x="-20" y="-633" />
              <mxPoint x="-20" y="-530" />
              <mxPoint x="120" y="-530" />
            </Array>
          </mxGeometry>
        </mxCell>
        <mxCell id="M7_jwG1Dzegm933CNIvK-73" value="EmployerEmployeeMediator" style="swimlane;fontStyle=1;align=center;verticalAlign=top;childLayout=stackLayout;horizontal=1;startSize=26;horizontalStack=0;resizeParent=1;resizeParentMax=0;resizeLast=0;collapsible=1;marginBottom=0;whiteSpace=wrap;html=1;" vertex="1" parent="1">
          <mxGeometry x="-15" y="-180" width="270" height="110" as="geometry" />
        </mxCell>
        <mxCell id="M7_jwG1Dzegm933CNIvK-75" value="" style="line;strokeWidth=1;fillColor=none;align=left;verticalAlign=middle;spacingTop=-1;spacingLeft=3;spacingRight=3;rotatable=0;labelPosition=right;points=[];portConstraint=eastwest;strokeColor=inherit;" vertex="1" parent="M7_jwG1Dzegm933CNIvK-73">
          <mxGeometry y="26" width="270" height="8" as="geometry" />
        </mxCell>
        <mxCell id="M7_jwG1Dzegm933CNIvK-76" value="+ GetEmployerPriority(Employer employer, Employee employee)&lt;div&gt;+ GetEmployeePriority(Employer employer, Employee employee)&lt;/div&gt;" style="text;strokeColor=none;fillColor=none;align=left;verticalAlign=top;spacingLeft=4;spacingRight=4;overflow=hidden;rotatable=0;points=[[0,0.5],[1,0.5]];portConstraint=eastwest;whiteSpace=wrap;html=1;" vertex="1" parent="M7_jwG1Dzegm933CNIvK-73">
          <mxGeometry y="34" width="270" height="76" as="geometry" />
        </mxCell>
      </root>
    </mxGraphModel>
  </diagram>
</mxfile>
